<svg xmlns="http://www.w3.org/2000/svg" xmlns:xlink="http://www.w3.org/1999/xlink" version="1.1" x="0px" y="0px" viewBox="0 0 100 100" enable-background="new 0 0 100 100" xml:space="preserve"><path d="M70.023,65.406c8.579-6.398,13.498-16.197,13.498-26.885C83.521,20.038,68.484,5,50,5C31.517,5,16.479,20.038,16.479,38.521  c0,14.689,9.399,27.531,23.389,31.962l0,0c4.225,1.503,5.027,6.609,5.457,9.352c0.042,0.267,0.08,0.51,0.117,0.725  c0.257,1.477,1.322,2.575,2.589,2.671c1.281,0.078,2.398-0.875,2.972-2.599c0.302-0.905,0.544-1.895,0.778-2.852  c0.335-1.371,0.842-3.445,1.316-3.55c0.076-0.013,0.312,0.083,0.692,0.557c0.918,1.146,0.974,4.53,1.024,7.515  c0.065,3.901,0.122,7.27,1.768,7.851c0.188,0.067,0.356,0.093,0.506,0.093c0.285,0,0.499-0.097,0.646-0.198  c0.892-0.618,0.932-2.539,0.991-5.448c0.022-1.077,0.047-2.298,0.122-3.559c0.168-2.858,0.561-9.551,1.397-9.907  c0.001,0,0.052,0.007,0.158,0.091c0.302,0.24,0.882,1.677,1.348,2.831c1.117,2.766,2.166,5.38,3.626,5.107  c1.057-0.197,1.281-1.998,1.652-4.982c0.404-3.252,0.957-7.706,2.926-8.731 M79.356,37.937c0.027,3.669-0.746,5.347-1.04,5.852H50  H21.684c-0.298-0.511-1.067-2.19-1.04-5.852c0.026-3.432,0.771-5.266,1.067-5.861H50h28.288  C78.586,32.673,79.33,34.507,79.356,37.937z"></path><path d="M48.637,87.999l-0.294-0.212l-0.291,0.217c-0.125,0.094-3.045,2.317-2.245,4.944C46.171,94.141,47.313,95,48.529,95  c0.008,0,0.016,0,0.025,0c1.117-0.011,1.992-0.748,2.339-1.972C51.686,90.228,48.762,88.089,48.637,87.999z"></path></svg>